<?xml version="1.0" encoding="UTF-8" standalone="no"?>
<!-- Generator: Gravit.io -->

<svg
   style="isolation:isolate"
   viewBox="0 0 24 24"
   width="24pt"
   height="24pt"
   version="1.1"
   id="svg17"
   xmlns="http://www.w3.org/2000/svg"
   xmlns:svg="http://www.w3.org/2000/svg">
  <defs
     id="defs5">
    <clipPath
       id="_clipPath_4tODKee1rHPZDiZ3m4HsTgllPOGM2qGy">
      <rect
         width="24"
         height="24"
         id="rect2" />
    </clipPath>
  </defs>
  <g
     clip-path="url(#_clipPath_4tODKee1rHPZDiZ3m4HsTgllPOGM2qGy)"
     id="g15">
    <path
       id="rect12082"
       style="fill:#ebebeb;fill-opacity:0.50813;stroke:none;stroke-width:2.02573;stroke-linecap:butt;stroke-linejoin:bevel;stroke-miterlimit:0;stroke-dasharray:none;stroke-opacity:1"
       d="M 0,0 V 32 H 32 V 0 Z m 29.658203,10.917969 -2.933594,5.74414 6.302735,-0.177734 L 15.126953,32.173828 14.570312,25.248047 9,23.673827 l 9.916016,-11.5 z"
       transform="scale(0.75)" />
    <path
       d="m 16.156485,1.8491703 c 3.713831,0 6.725483,3.0532759 6.725483,6.8198947 0,3.76662 -3.011652,6.819895 -6.725483,6.819895 -7.3485135,-0.04363 -5.247054,-0.02435 -8.9081198,-0.02334 -2.6615775,0 -4.8178321,-2.187724 -4.8178321,-4.885849 10e-4,-2.6971116 2.1572686,-4.8838203 4.8178321,-4.8838203 0.9020764,0.00101 1.7869019,0.2597665 2.5509758,0.7458142 0.936576,-2.7488584 3.489581,-4.5925946 6.357144,-4.5925946 z"
       fill-rule="evenodd"
       fill="#000000"
       fill-opacity="0.54878"
       id="path11-5"
       style="isolation:isolate;fill:none;stroke:#000000;stroke-width:1.52207;stroke-miterlimit:4;stroke-dasharray:none;stroke-opacity:1" />
    <path
       id="rect8198-9"
       style="isolation:isolate;fill:none;fill-opacity:0.50813;stroke:#000000;stroke-width:1.5;stroke-linejoin:bevel;stroke-miterlimit:0;stroke-dasharray:none;stroke-opacity:1"
       d="m 15.499138,10.653162 3.884368,-0.6599203 -2.997279,4.4019493 3.720218,-0.06316 -7.96513,7.055853 2.207329,-4.537533 -4.3649125,0.06067 z" />
  </g>
</svg>
