<svg width="20" height="13" viewBox="0 0 20 13" fill="none" xmlns="http://www.w3.org/2000/svg">
<path d="M11.9327 5.90356L11.5225 4.69968C10.7656 2.47809 8.70801 1 6.41006 1C3.43572 1 1 3.44922 1 6.5C1 9.54978 3.43413 11.9984 6.40715 12C11.4486 11.9701 11.8265 11.9712 12.9425 11.9745C13.377 11.9758 13.9234 11.9775 14.9004 11.9778L11.9327 5.90356ZM11.9327 5.90356L13.0058 5.22093M11.9327 5.90356L13.0058 5.22093M13.0058 5.22093C13.5745 4.85915 14.232 4.66718 14.9011 4.66634C16.871 4.66671 18.4913 6.28969 18.4923 8.32108L13.0058 5.22093ZM18.4923 8.32146C18.4921 10.3539 16.8716 11.9776 14.9007 11.9778L18.4923 8.32146Z" stroke="black" stroke-opacity="0.25" stroke-width="2"/>
</svg>
