<?xml version="1.0" encoding="UTF-8" standalone="no"?>
<!-- Generator: Gravit.io -->

<svg
   style="isolation:isolate"
   viewBox="0 0 24 24"
   width="24pt"
   height="24pt"
   version="1.1"
   id="svg17"
   xmlns="http://www.w3.org/2000/svg"
   xmlns:svg="http://www.w3.org/2000/svg">
  <defs
     id="defs5">
    <clipPath
       id="_clipPath_4tODKee1rHPZDiZ3m4HsTgllPOGM2qGy">
      <rect
         width="24"
         height="24"
         id="rect2" />
    </clipPath>
  </defs>
  <g
     clip-path="url(#_clipPath_4tODKee1rHPZDiZ3m4HsTgllPOGM2qGy)"
     id="g15">
    <ellipse
       vector-effect="non-scaling-stroke"
       cx="12.000001764771408"
       cy="11.999999622047255"
       rx="6.888314995643622"
       ry="6.9842530083699845"
       fill="none"
       stroke-width="3.012"
       stroke="rgb(0,0,0)"
       stroke-linejoin="miter"
       stroke-linecap="butt"
       stroke-miterlimit="4"
       id="ellipse7" />
    <path
       d=" M 23.993 18.247 L 23.993 0 L 0 0 L 0 15.665 C 0.175 11.401 3.639 8 7.886 8 C 11.252 8 14.246 10.164 15.346 13.389 C 16.243 12.819 17.281 12.515 18.34 12.514 C 21.462 12.514 23.993 15.08 23.993 18.245 C 23.993 18.246 23.993 18.246 23.993 18.247 Z  M 23.993 18.247 L 23.993 23.979 L 18.34 23.979 L 12.766 23.979 C 15.674 23.966 15.192 23.978 18.34 23.979 L 18.34 23.979 C 21.462 23.979 23.993 21.413 23.993 18.247 Z  M 7.235 23.979 L 0 23.979 L 0 16.341 C 0.166 20.384 3.29 23.653 7.235 23.979 Z "
       fill-rule="evenodd"
       fill="rgb(235,235,235)"
       id="path9" />
    <path
       d="m 8.809858,11.011436 c -3.3018815,0 -5.9794728,2.71458 -5.9794728,6.063373 0,3.348794 2.6775913,6.063373 5.9794728,6.063373 6.533395,-0.03879 4.665035,-0.02165 7.920005,-0.02075 2.366348,0 4.283424,-1.945043 4.283424,-4.343869 -9.02e-4,-2.397924 -1.917978,-4.342064 -4.283424,-4.342064 -0.802015,9.02e-4 -1.588693,0.230951 -2.268014,0.663082 -0.832688,-2.443932 -3.102506,-4.083145 -5.651991,-4.083145 z"
       fill-rule="evenodd"
       fill="#000000"
       fill-opacity="0.54878"
       id="path11"
       style="fill:none;stroke:#000000;stroke-width:1.35323;stroke-miterlimit:4;stroke-dasharray:none;stroke-opacity:1" />
    <circle
       vector-effect="non-scaling-stroke"
       cx="11.99308296183972"
       cy="12.014691023159338"
       r="11.006321417123736"
       fill="none"
       stroke-width="2.002"
       stroke="rgb(0,0,0)"
       stroke-linejoin="round"
       stroke-linecap="butt"
       stroke-miterlimit="4"
       id="circle13" />
  </g>
</svg>
