<svg width="24" height="24" viewBox="0 0 24 24" fill="none" xmlns="http://www.w3.org/2000/svg">
<rect width="24" height="24" fill="white"/>
<path fill-rule="evenodd" clip-rule="evenodd" d="M2.73688 2.73682C1.77765 3.69605 1.77765 5.25127 2.73688 6.2105L8.52639 12L2.73695 17.7895C1.77772 18.7487 1.77772 20.3039 2.73695 21.2631C3.69618 22.2224 5.2514 22.2224 6.21063 21.2631L12.0001 15.4737L17.7895 21.2631C18.7487 22.2223 20.3039 22.2223 21.2632 21.2631C22.2224 20.3039 22.2224 18.7487 21.2632 17.7894L15.4738 12L21.2632 6.21052C22.2225 5.25129 22.2225 3.69607 21.2632 2.73684C20.304 1.7776 18.7488 1.77761 17.7896 2.73684L12.0001 8.52633L6.21056 2.73682C5.25133 1.77759 3.69611 1.77759 2.73688 2.73682Z" fill="#C4C4C4"/>
</svg>
