<svg width="24" height="24" viewBox="0 0 24 24" fill="none" xmlns="http://www.w3.org/2000/svg">
<g id="Frame 1">
<rect width="24" height="24" fill="white"/>
<g id="humi">
<g id="Ellipse 35">
<mask id="path-2-inside-1_33_169" fill="white">
<path d="M21.4813 14.513C21.4813 19.2002 17.2364 23 12 23C6.7636 23 2.51868 19.2002 2.51868 14.513C2.51868 10.1454 6.63475 10.2328 11.0315 1.68214C11.4269 0.913245 12.5731 0.913246 12.9684 1.68214C17.3652 10.2328 21.4813 10.1454 21.4813 14.513Z"/>
</mask>
<path d="M21.4813 14.513C21.4813 19.2002 17.2364 23 12 23C6.7636 23 2.51868 19.2002 2.51868 14.513C2.51868 10.1454 6.63475 10.2328 11.0315 1.68214C11.4269 0.913245 12.5731 0.913246 12.9684 1.68214C17.3652 10.2328 21.4813 10.1454 21.4813 14.513Z" stroke="black" stroke-width="4" stroke-linejoin="round" mask="url(#path-2-inside-1_33_169)"/>
</g>
</g>
<path id="Union" fill-rule="evenodd" clip-rule="evenodd" d="M7.42224 11.5098C7.42224 10.7382 8.04775 10.1127 8.81936 10.1127C9.59096 10.1127 10.2165 10.7382 10.2165 11.5098V13.2933H13.7837V11.5098C13.7837 10.7382 14.4092 10.1127 15.1808 10.1127C15.9524 10.1127 16.5779 10.7382 16.5779 11.5098V17.871C16.5779 18.6426 15.9524 19.2681 15.1808 19.2681C14.4092 19.2681 13.7837 18.6426 13.7837 17.871V16.0875H10.2165V17.871C10.2165 18.6426 9.59096 19.2681 8.81936 19.2681C8.04775 19.2681 7.42224 18.6426 7.42224 17.871V11.5098Z" fill="black"/>
</g>
</svg>
