<svg width="24" height="24" viewBox="0 0 24 24" fill="none" xmlns="http://www.w3.org/2000/svg">
<g id="Frame 1">
<rect width="24" height="24" fill="white"/>
<g id="iconWeatherAll">
<g id="cloudedSun">
<g id="cloud">
<g id="path11">
<mask id="path-2-inside-1_33_169" fill="white">
<path fill-rule="evenodd" clip-rule="evenodd" d="M12.3251 11.1575C9.49559 11.1575 7.20105 13.4837 7.20105 16.3534C7.20105 19.2232 9.49559 21.5494 12.3251 21.5494C17.9238 21.5162 16.3228 21.5308 19.1121 21.5316C21.1399 21.5316 22.7827 19.8648 22.7827 17.8092C22.7819 15.7543 21.1391 14.0883 19.1121 14.0883C18.4248 14.0891 17.7507 14.2862 17.1685 14.6565C16.455 12.5622 14.5099 11.1575 12.3251 11.1575V11.1575Z"/>
</mask>
<path fill-rule="evenodd" clip-rule="evenodd" d="M12.3251 11.1575C9.49559 11.1575 7.20105 13.4837 7.20105 16.3534C7.20105 19.2232 9.49559 21.5494 12.3251 21.5494C17.9238 21.5162 16.3228 21.5308 19.1121 21.5316C21.1399 21.5316 22.7827 19.8648 22.7827 17.8092C22.7819 15.7543 21.1391 14.0883 19.1121 14.0883C18.4248 14.0891 17.7507 14.2862 17.1685 14.6565C16.455 12.5622 14.5099 11.1575 12.3251 11.1575V11.1575Z" stroke="black" stroke-width="4" stroke-linejoin="round" mask="url(#path-2-inside-1_33_169)"/>
</g>
</g>
<path id="Union" fill-rule="evenodd" clip-rule="evenodd" d="M11.7517 1.47644C11.1994 1.47644 10.7517 1.92416 10.7517 2.47644V3.47644C10.7517 4.02873 11.1994 4.47644 11.7517 4.47644C12.304 4.47644 12.7517 4.02873 12.7517 3.47644V2.47644C12.7517 1.92416 12.304 1.47644 11.7517 1.47644ZM4.67512 4.40764C4.2846 4.79816 4.2846 5.43133 4.67512 5.82185L5.38223 6.52896C5.77276 6.91948 6.40592 6.91948 6.79644 6.52896C7.18697 6.13844 7.18697 5.50527 6.79644 5.11475L6.08934 4.40764C5.69881 4.01711 5.06565 4.01711 4.67512 4.40764ZM2.7439 12.4842C2.19161 12.4842 1.7439 12.0365 1.7439 11.4842C1.7439 10.9319 2.19161 10.4842 2.7439 10.4842H3.7439C4.29618 10.4842 4.7439 10.9319 4.7439 11.4842C4.7439 12.0365 4.29618 12.4842 3.7439 12.4842H2.7439ZM19.7594 12.4842C19.2071 12.4842 18.7594 12.0365 18.7594 11.4842C18.7594 10.9319 19.2071 10.4842 19.7594 10.4842H20.7594C21.3117 10.4842 21.7594 10.9319 21.7594 11.4842C21.7594 12.0365 21.3117 12.4842 20.7594 12.4842H19.7594ZM17.414 4.40767C17.8045 4.01714 18.4377 4.01714 18.8282 4.40767C19.2187 4.79819 19.2187 5.43136 18.8282 5.82188L18.1211 6.52899C17.7306 6.91951 17.0974 6.91951 16.7069 6.52899C16.3164 6.13846 16.3164 5.5053 16.7069 5.11477L17.414 4.40767ZM6.7964 16.4395C6.40588 16.0489 5.77271 16.0489 5.38219 16.4395L4.67508 17.1466C4.28456 17.5371 4.28456 18.1703 4.67508 18.5608C5.06561 18.9513 5.69877 18.9513 6.08929 18.5608L6.7964 17.8537C7.18693 17.4632 7.18693 16.83 6.7964 16.4395ZM14.7797 11.7923C14.7899 11.691 14.7951 11.5882 14.7951 11.4842C14.7951 9.80342 13.4325 8.44086 11.7517 8.44086C10.0709 8.44086 8.70837 9.80342 8.70837 11.4842C8.70837 11.8419 8.77009 12.1853 8.88346 12.5041C8.33211 13.0113 7.89017 13.6386 7.59784 14.3452C7.03687 13.5323 6.70837 12.5466 6.70837 11.4842C6.70837 8.69885 8.96637 6.44086 11.7517 6.44086C14.5371 6.44086 16.7951 8.69885 16.7951 11.4842C16.7951 12.1197 16.6776 12.7278 16.463 13.2879C16.0154 12.6669 15.4389 12.1572 14.7797 11.7923Z" fill="black"/>
</g>
<g id="clouded">
<g id="cloud_2">
<g id="path11_2">
<mask id="path-4-inside-2_33_169" fill="white">
<path fill-rule="evenodd" clip-rule="evenodd" d="M8.16277 7.02136C4.20706 7.02136 0.999268 10.2735 0.999268 14.2854C0.999268 18.2973 4.20706 21.5494 8.16277 21.5494C15.9899 21.5029 13.7516 21.5234 17.6511 21.5245C20.486 21.5245 22.7827 19.1943 22.7827 16.3205C22.7816 13.4478 20.4849 11.1186 17.6511 11.1186C16.6902 11.1197 15.7478 11.3953 14.9339 11.913C13.9364 8.98516 11.2171 7.02136 8.16277 7.02136V7.02136Z"/>
</mask>
<path fill-rule="evenodd" clip-rule="evenodd" d="M8.16277 7.02136C4.20706 7.02136 0.999268 10.2735 0.999268 14.2854C0.999268 18.2973 4.20706 21.5494 8.16277 21.5494C15.9899 21.5029 13.7516 21.5234 17.6511 21.5245C20.486 21.5245 22.7827 19.1943 22.7827 16.3205C22.7816 13.4478 20.4849 11.1186 17.6511 11.1186C16.6902 11.1197 15.7478 11.3953 14.9339 11.913C13.9364 8.98516 11.2171 7.02136 8.16277 7.02136V7.02136Z" stroke="black" stroke-width="4" stroke-linejoin="round" mask="url(#path-4-inside-2_33_169)"/>
</g>
</g>
<g id="Subtract">
<mask id="path-5-inside-3_33_169" fill="white">
</mask>
<path d="M8.21362 5.29483L8.21467 4.29483H8.21362V5.29483ZM10.4113 5.8927L9.90195 6.75325C10.1577 6.90461 10.4674 6.93441 10.7473 6.83456C11.0272 6.73472 11.2482 6.51558 11.3504 6.23654L10.4113 5.8927ZM15.8881 3.21109C18.5909 3.21109 20.6822 5.265 20.6822 7.6782H22.6822C22.6822 4.05244 19.5843 1.21109 15.8881 1.21109V3.21109ZM5.06299 9.2103C5.06362 7.65406 6.41831 6.29483 8.21362 6.29483V4.29483C5.4247 4.29483 3.06411 6.44151 3.06299 9.2095L5.06299 9.2103ZM8.21257 6.29483C8.8138 6.29546 9.40012 6.45621 9.90195 6.75325L10.9207 5.03216C10.106 4.54993 9.16774 4.29583 8.21467 4.29483L8.21257 6.29483ZM11.3504 6.23654C12.0029 4.45434 13.8075 3.21109 15.8881 3.21109V1.21109C13.0278 1.21109 10.4335 2.92387 9.47229 5.54887L11.3504 6.23654ZM20.6822 7.6782C20.6822 9.24376 19.814 10.6448 18.4581 11.4495L19.4788 13.1694C21.3832 12.0392 22.6822 10.0153 22.6822 7.6782H20.6822Z" fill="black" mask="url(#path-5-inside-3_33_169)"/>
</g>
</g>
<path id="sun" fill-rule="evenodd" clip-rule="evenodd" d="M10.7517 2.53387C10.7517 1.98159 11.1994 1.53387 11.7517 1.53387C12.304 1.53387 12.7517 1.98159 12.7517 2.53387V3.53387C12.7517 4.08616 12.304 4.53387 11.7517 4.53387C11.1994 4.53387 10.7517 4.08616 10.7517 3.53387V2.53387ZM11.7517 14.585C13.4325 14.585 14.7951 13.2225 14.7951 11.5417C14.7951 9.86085 13.4325 8.49829 11.7517 8.49829C10.0709 8.49829 8.70837 9.86085 8.70837 11.5417C8.70837 13.2225 10.0709 14.585 11.7517 14.585ZM11.7517 16.585C14.5371 16.585 16.7951 14.327 16.7951 11.5417C16.7951 8.75628 14.5371 6.49829 11.7517 6.49829C8.96637 6.49829 6.70837 8.75628 6.70837 11.5417C6.70837 14.327 8.96637 16.585 11.7517 16.585ZM11.7517 18.5494C11.1994 18.5494 10.7517 18.9971 10.7517 19.5494V20.5494C10.7517 21.1017 11.1994 21.5494 11.7517 21.5494C12.304 21.5494 12.7517 21.1017 12.7517 20.5494V19.5494C12.7517 18.9971 12.304 18.5494 11.7517 18.5494ZM2.7439 12.5417C2.19161 12.5417 1.7439 12.0939 1.7439 11.5417C1.7439 10.9894 2.19161 10.5417 2.7439 10.5417H3.7439C4.29618 10.5417 4.7439 10.9894 4.7439 11.5417C4.7439 12.0939 4.29618 12.5417 3.7439 12.5417H2.7439ZM18.7594 11.5417C18.7594 12.0939 19.2071 12.5417 19.7594 12.5417H20.7594C21.3117 12.5417 21.7594 12.0939 21.7594 11.5417C21.7594 10.9894 21.3117 10.5417 20.7594 10.5417H19.7594C19.2071 10.5417 18.7594 10.9894 18.7594 11.5417ZM4.67512 5.87932C4.2846 5.48879 4.2846 4.85563 4.67512 4.4651C5.06565 4.07458 5.69881 4.07458 6.08934 4.4651L6.79644 5.17221C7.18697 5.56274 7.18697 6.1959 6.79644 6.58642C6.40592 6.97695 5.77276 6.97695 5.38223 6.58642L4.67512 5.87932ZM16.7069 16.4969C16.3164 16.8874 16.3164 17.5206 16.7069 17.9111L17.414 18.6182C17.8046 19.0087 18.4377 19.0087 18.8282 18.6182C19.2188 18.2277 19.2188 17.5945 18.8282 17.204L18.1211 16.4969C17.7306 16.1064 17.0974 16.1064 16.7069 16.4969ZM17.414 4.4651C17.8045 4.07458 18.4377 4.07458 18.8282 4.4651C19.2187 4.85563 19.2187 5.48879 18.8282 5.87932L18.1211 6.58642C17.7306 6.97695 17.0974 6.97695 16.7069 6.58642C16.3164 6.1959 16.3164 5.56273 16.7069 5.17221L17.414 4.4651ZM6.7964 16.4969C6.40588 16.1064 5.77271 16.1064 5.38219 16.4969L4.67508 17.204C4.28456 17.5945 4.28456 18.2277 4.67508 18.6182C5.06561 19.0087 5.69877 19.0087 6.08929 18.6182L6.7964 17.9111C7.18693 17.5206 7.18693 16.8874 6.7964 16.4969Z" fill="black"/>
<g id="cloudedMoon">
<g id="cloud_3">
<g id="path11_3">
<mask id="path-8-inside-4_33_169" fill="white">
<path fill-rule="evenodd" clip-rule="evenodd" d="M9.9186 8.48251C6.37895 8.48251 3.50854 11.3926 3.50854 14.9825C3.50854 18.5725 6.37895 21.4825 9.9186 21.4825C16.9225 21.4409 14.9196 21.4593 18.4089 21.4603C20.9457 21.4603 23.0008 19.3752 23.0008 16.8036C22.9998 14.233 20.9447 12.1489 18.4089 12.1489C17.5492 12.1498 16.7058 12.3964 15.9776 12.8597C15.0849 10.2398 12.6517 8.48251 9.9186 8.48251V8.48251Z"/>
</mask>
<path fill-rule="evenodd" clip-rule="evenodd" d="M9.9186 8.48251C6.37895 8.48251 3.50854 11.3926 3.50854 14.9825C3.50854 18.5725 6.37895 21.4825 9.9186 21.4825C16.9225 21.4409 14.9196 21.4593 18.4089 21.4603C20.9457 21.4603 23.0008 19.3752 23.0008 16.8036C22.9998 14.233 20.9447 12.1489 18.4089 12.1489C17.5492 12.1498 16.7058 12.3964 15.9776 12.8597C15.0849 10.2398 12.6517 8.48251 9.9186 8.48251V8.48251Z" stroke="black" stroke-width="4" stroke-linejoin="round" mask="url(#path-8-inside-4_33_169)"/>
</g>
</g>
<path id="Subtract_2" fill-rule="evenodd" clip-rule="evenodd" d="M9.9186 8.48251C6.37895 8.48251 3.50854 11.3926 3.50854 14.9825C3.50854 18.5725 6.37895 21.4825 9.9186 21.4825C16.9225 21.4409 14.9196 21.4593 18.4089 21.4603C20.9457 21.4603 23.0008 19.3752 23.0008 16.8036C22.9998 14.233 20.9447 12.1489 18.4089 12.1489C17.5492 12.1498 16.7058 12.3964 15.9776 12.8597C15.0849 10.2398 12.6517 8.48251 9.9186 8.48251Z" fill="black"/>
</g>
<path id="moon" d="M19.9949 16.7184L20.8044 17.3056C21.0484 16.9692 21.0589 16.5169 20.8308 16.1695C20.6027 15.8222 20.1836 15.652 19.7779 15.7422L19.9949 16.7184ZM10.6315 2.4842L11.4409 3.07139C11.6849 2.735 11.6955 2.28274 11.4674 1.93535C11.2393 1.58795 10.8201 1.41784 10.4144 1.50804L10.6315 2.4842ZM19.7779 15.7422C19.2095 15.8686 18.6178 15.9355 18.0093 15.9355V17.9355C18.7647 17.9355 19.502 17.8524 20.2119 17.6946L19.7779 15.7422ZM18.0093 15.9355C13.5311 15.9355 9.90076 12.3051 9.90076 7.82693H7.90076C7.90076 13.4097 12.4265 17.9355 18.0093 17.9355V15.9355ZM9.90076 7.82693C9.90076 6.0489 10.4719 4.4072 11.4409 3.07139L9.822 1.89701C8.61358 3.56285 7.90076 5.61312 7.90076 7.82693H9.90076ZM4.50854 11.3757C4.50854 7.5058 7.22051 4.26698 10.8485 3.46037L10.4144 1.50804C5.89113 2.51371 2.50854 6.54849 2.50854 11.3757H4.50854ZM12.6171 19.4842C8.13886 19.4842 4.50854 15.8539 4.50854 11.3757H2.50854C2.50854 16.9585 7.03429 21.4842 12.6171 21.4842V19.4842ZM19.1855 16.1312C17.7102 18.1649 15.3178 19.4842 12.6171 19.4842V21.4842C15.9856 21.4842 18.9691 19.8356 20.8044 17.3056L19.1855 16.1312Z" fill="black"/>
<g id="snowThunder">
<g id="cloud_4">
<path id="path11_4" d="M8.63387 14.4842C5.3895 14.4842 2.75854 11.8247 2.75854 8.54387C2.75854 5.26304 5.3895 2.60355 8.63387 2.60355C11.139 2.60355 13.3692 4.20949 14.1874 6.60383C14.8549 6.18047 15.6279 5.95509 16.4159 5.9542C18.7402 5.9542 20.6239 7.85889 20.6247 10.2081C20.6247 12.5583 18.7411 14.4639 16.4159 14.4639" stroke="black" stroke-width="2" stroke-linecap="round" stroke-linejoin="round"/>
</g>
<path id="Subtract_3" fill-rule="evenodd" clip-rule="evenodd" d="M11.7517 18.7054C11.7517 20.2785 13.027 21.5538 14.6001 21.5538C16.1732 21.5538 17.4485 20.2785 17.4485 18.7054C17.4485 17.1323 16.1732 15.857 14.6001 15.857L15.2396 17.8252H17.3091L15.6348 19.0416L16.2743 21.0098L14.6001 19.7934L12.9258 21.0098L13.5654 19.0416L11.8911 17.8252H13.9606L14.6001 15.857C13.027 15.857 11.7517 17.1323 11.7517 18.7054Z" fill="black"/>
<path id="Subtract_4" fill-rule="evenodd" clip-rule="evenodd" d="M8.96187 20.1767C8.96187 20.9893 9.62061 21.6481 10.4332 21.6481C11.2458 21.6481 11.9045 20.9893 11.9045 20.1767C11.9045 19.3642 11.2458 18.7054 10.4332 18.7054L10.7635 19.7221H11.8325L10.9677 20.3504L11.298 21.3671L10.4332 20.7387L9.56838 21.3671L9.89872 20.3504L9.03389 19.7221H10.1029L10.4332 18.7054C9.62061 18.7054 8.96187 19.3642 8.96187 20.1767Z" fill="black"/>
<path id="Line 16" d="M15.8157 9.22835C16.2483 8.88507 16.3208 8.25607 15.9775 7.82342C15.6342 7.39078 15.0052 7.31834 14.5725 7.66161L15.8157 9.22835ZM9.84154 12.6919L9.21998 11.9086C8.88672 12.173 8.75724 12.6193 8.89725 13.0211C9.03726 13.4228 9.41611 13.6919 9.84154 13.6919L9.84154 12.6919ZM9.20225 16.3728C8.77756 16.7259 8.7195 17.3564 9.07257 17.7811C9.42564 18.2058 10.0561 18.2638 10.4808 17.9108L9.20225 16.3728ZM14.1302 13.5764L13.4909 12.8075L14.1302 13.5764ZM14.5725 7.66161L9.21998 11.9086L10.4631 13.4753L15.8157 9.22835L14.5725 7.66161ZM9.84154 13.6919L13.8106 13.6919L13.8106 11.6919L9.84154 11.6919L9.84154 13.6919ZM13.4909 12.8075L9.20225 16.3728L10.4808 17.9108L14.7695 14.3454L13.4909 12.8075ZM13.8106 13.6919C13.3426 13.6919 13.1311 13.1066 13.4909 12.8075L14.7695 14.3454C15.849 13.448 15.2144 11.6919 13.8106 11.6919L13.8106 13.6919Z" fill="black"/>
</g>
<g id="rainThunder">
<g id="cloud_5">
<path id="path11_5" d="M8.63387 14.4842C5.3895 14.4842 2.75854 11.8247 2.75854 8.54387C2.75854 5.26304 5.3895 2.60355 8.63387 2.60355C11.139 2.60355 13.3692 4.20949 14.1874 6.60383C14.8549 6.18047 15.6279 5.95509 16.4159 5.9542C18.7402 5.9542 20.6239 7.85889 20.6247 10.2081C20.6247 12.5583 18.7411 14.4639 16.4159 14.4639" stroke="black" stroke-width="2" stroke-linecap="round" stroke-linejoin="round"/>
</g>
<g id="rain">
<rect id="Rectangle 58" x="6.42261" y="17.4624" width="2" height="3" rx="1" fill="#050505"/>
<rect id="Rectangle 59" x="13.8344" y="15.4605" width="2" height="3" rx="1" fill="#050505"/>
<rect id="Rectangle 60" x="10.4978" y="19.5236" width="2" height="3" rx="1" fill="#050505"/>
</g>
<path id="Line 16_2" d="M15.8157 9.22835C16.2483 8.88507 16.3208 8.25607 15.9775 7.82342C15.6342 7.39078 15.0052 7.31834 14.5725 7.66161L15.8157 9.22835ZM9.84154 12.6919L9.21998 11.9086C8.88672 12.173 8.75724 12.6193 8.89725 13.0211C9.03726 13.4228 9.41611 13.6919 9.84154 13.6919L9.84154 12.6919ZM9.20225 16.3728C8.77756 16.7259 8.7195 17.3564 9.07257 17.7811C9.42564 18.2058 10.0561 18.2638 10.4808 17.9108L9.20225 16.3728ZM14.1302 13.5764L13.4909 12.8075L14.1302 13.5764ZM14.5725 7.66161L9.21998 11.9086L10.4631 13.4753L15.8157 9.22835L14.5725 7.66161ZM9.84154 13.6919L13.8106 13.6919L13.8106 11.6919L9.84154 11.6919L9.84154 13.6919ZM13.4909 12.8075L9.20225 16.3728L10.4808 17.9108L14.7695 14.3454L13.4909 12.8075ZM13.8106 13.6919C13.3426 13.6919 13.1311 13.1066 13.4909 12.8075L14.7695 14.3454C15.849 13.448 15.2144 11.6919 13.8106 11.6919L13.8106 13.6919Z" fill="black"/>
</g>
<g id="Rain">
<g id="rain_2">
<rect id="Rectangle 58_2" x="6.42261" y="16.9605" width="2" height="3" rx="1" fill="#050505"/>
<rect id="Rectangle 59_2" x="13.8344" y="15.4605" width="2" height="3" rx="1" fill="#050505"/>
<rect id="Rectangle 60_2" x="10.4978" y="19.5236" width="2" height="3" rx="1" fill="#050505"/>
</g>
<g id="cloud_6">
<g id="path11_6">
<mask id="path-23-inside-5_33_169" fill="white">
<path fill-rule="evenodd" clip-rule="evenodd" d="M8.16177 1.48419C4.62212 1.48419 1.75171 4.39425 1.75171 7.98419C1.75171 11.5741 4.62212 14.4842 8.16177 14.4842C15.1656 14.4426 13.1627 14.461 16.6521 14.4619C19.1888 14.4619 21.244 12.3768 21.244 9.80527C21.243 7.23467 19.1879 5.15053 16.6521 5.15053C15.7923 5.1515 14.949 5.39812 14.2208 5.86137C13.3281 3.24144 10.8948 1.48419 8.16177 1.48419V1.48419Z"/>
</mask>
<path fill-rule="evenodd" clip-rule="evenodd" d="M8.16177 1.48419C4.62212 1.48419 1.75171 4.39425 1.75171 7.98419C1.75171 11.5741 4.62212 14.4842 8.16177 14.4842C15.1656 14.4426 13.1627 14.461 16.6521 14.4619C19.1888 14.4619 21.244 12.3768 21.244 9.80527C21.243 7.23467 19.1879 5.15053 16.6521 5.15053C15.7923 5.1515 14.949 5.39812 14.2208 5.86137C13.3281 3.24144 10.8948 1.48419 8.16177 1.48419V1.48419Z" stroke="black" stroke-width="4" stroke-linejoin="round" mask="url(#path-23-inside-5_33_169)"/>
</g>
</g>
</g>
<g id="Snow">
<g id="cloud_7">
<g id="path11_7">
<mask id="path-24-inside-6_33_169" fill="white">
<path fill-rule="evenodd" clip-rule="evenodd" d="M8.16177 1.48419C4.62212 1.48419 1.75171 4.39425 1.75171 7.98419C1.75171 11.5741 4.62212 14.4842 8.16177 14.4842C15.1656 14.4426 13.1627 14.461 16.6521 14.4619C19.1888 14.4619 21.244 12.3768 21.244 9.80527C21.243 7.23467 19.1879 5.15053 16.6521 5.15053C15.7923 5.1515 14.949 5.39812 14.2208 5.86137C13.3281 3.24144 10.8948 1.48419 8.16177 1.48419V1.48419Z"/>
</mask>
<path fill-rule="evenodd" clip-rule="evenodd" d="M8.16177 1.48419C4.62212 1.48419 1.75171 4.39425 1.75171 7.98419C1.75171 11.5741 4.62212 14.4842 8.16177 14.4842C15.1656 14.4426 13.1627 14.461 16.6521 14.4619C19.1888 14.4619 21.244 12.3768 21.244 9.80527C21.243 7.23467 19.1879 5.15053 16.6521 5.15053C15.7923 5.1515 14.949 5.39812 14.2208 5.86137C13.3281 3.24144 10.8948 1.48419 8.16177 1.48419V1.48419Z" stroke="black" stroke-width="4" stroke-linejoin="round" mask="url(#path-24-inside-6_33_169)"/>
</g>
</g>
<path id="Subtract_5" fill-rule="evenodd" clip-rule="evenodd" d="M12.5542 17.6813C12.5542 19.2544 11.2789 20.5297 9.70582 20.5297C8.13269 20.5297 6.85742 19.2544 6.85742 17.6813C6.85742 16.1082 8.13269 14.8329 9.70582 14.8329L9.06631 16.8011H6.99683L8.67108 18.0175L8.03157 19.9857L9.70582 18.7693L11.3801 19.9857L10.7406 18.0175L12.4148 16.8011H10.3453L9.70582 14.8329C11.2789 14.8329 12.5542 16.1082 12.5542 17.6813Z" fill="black"/>
<path id="Subtract_6" fill-rule="evenodd" clip-rule="evenodd" d="M15.9494 19.3807C15.9494 20.5398 15.0097 21.4795 13.8505 21.4795C12.6914 21.4795 11.7517 20.5398 11.7517 19.3807C11.7517 18.2215 12.6914 17.2818 13.8505 17.2818L13.3793 18.7321L11.8544 18.7321L13.0881 19.6284L12.6169 21.0787L13.8505 20.1824L15.0842 21.0787L14.613 19.6284L15.8467 18.7321L14.3218 18.7321L13.8505 17.2818C15.0097 17.2818 15.9494 18.2215 15.9494 19.3807Z" fill="black"/>
</g>
</g>
</g>
</svg>
