<svg width="128" height="128" viewBox="0 0 128 128" fill="none" xmlns="http://www.w3.org/2000/svg">
<rect width="128" height="128" fill="white"/>
<path fill-rule="evenodd" clip-rule="evenodd" d="M107.007 96.6602C103.146 97.537 99.1269 98 95 98C65.1766 98 41 73.8234 41 44C41 31.7263 45.0948 20.409 51.9928 11.3397C27.9485 16.7991 10 38.3035 10 64C10 93.8234 34.1766 118 64 118C81.5497 118 97.1441 109.628 107.007 96.6602Z" fill="url(#paint0_radial_51_40)"/>
<circle cx="64" cy="64" r="54" fill="url(#paint1_radial_51_40)"/>
<g filter="url(#filter0_d_51_40)">
<path fill-rule="evenodd" clip-rule="evenodd" d="M45.516 45C25.9039 45 10 61.3411 10 81.5C10 101.659 25.9039 118 45.516 118C84.322 117.766 73.2246 117.87 92.558 117.875C106.613 117.875 118 106.166 118 91.7261C117.995 77.2912 106.608 65.5879 92.558 65.5879C87.7943 65.5934 83.1217 66.9782 79.0868 69.5795C74.1409 54.8677 60.659 45 45.516 45V45Z" fill="url(#paint2_linear_51_40)" shape-rendering="crispEdges"/>
</g>
<g filter="url(#filter1_d_51_40)">
<path fill-rule="evenodd" clip-rule="evenodd" d="M83.7995 10C102.685 10 118 25.6695 118 45C118 64.3305 102.685 80 83.7995 80C46.4307 79.7761 57.117 79.875 38.4997 79.8802C24.965 79.8802 14 68.6527 14 54.8058C14.0052 40.9641 24.9702 29.7418 38.4997 29.7418C43.087 29.7471 47.5865 31.075 51.472 33.5694C56.2347 19.4621 69.2173 10 83.7995 10V10Z" fill="url(#paint3_linear_51_40)" shape-rendering="crispEdges"/>
</g>
<g filter="url(#filter2_d_51_40)">
<rect x="62" y="80.1249" width="5.83348" height="17.5004" rx="2.91674" transform="rotate(-45 62 80.1249)" fill="white"/>
<rect x="41" y="80.1249" width="5.83348" height="17.5004" rx="2.91674" transform="rotate(-45 41 80.1249)" fill="white"/>
<rect x="66" y="106.125" width="5.83348" height="17.5004" rx="2.91674" transform="rotate(-45 66 106.125)" fill="white"/>
<rect x="85" y="104.125" width="5.83348" height="17.5004" rx="2.91674" transform="rotate(-45 85 104.125)" fill="white"/>
<rect x="104" y="104.125" width="5.83348" height="17.5004" rx="2.91674" transform="rotate(-45 104 104.125)" fill="white"/>
<rect x="83" y="80.1249" width="5.83348" height="17.5004" rx="2.91674" transform="rotate(-45 83 80.1249)" fill="white"/>
</g>
<g filter="url(#filter3_d_51_40)">
<path d="M55.478 45H34.0188C33.942 45 33.8938 45.0831 33.9321 45.1498L42.7987 60.6002C42.8369 60.6669 42.7888 60.75 42.7119 60.75H23.2276C23.1405 60.75 23.095 60.8535 23.1539 60.9176L66.0079 107.59C66.0834 107.672 66.2163 107.588 66.1742 107.484L51.9793 72.7003C51.9525 72.6345 52.0008 72.5625 52.0719 72.5625H69.8346C69.9098 72.5625 69.9581 72.4826 69.9232 72.416L55.5666 45.0535C55.5493 45.0206 55.5152 45 55.478 45Z" fill="#FFFDD9"/>
<path d="M55.478 45H34.0188C33.942 45 33.8938 45.0831 33.9321 45.1498L42.7987 60.6002C42.8369 60.6669 42.7888 60.75 42.7119 60.75H23.2276C23.1405 60.75 23.095 60.8535 23.1539 60.9176L66.0079 107.59C66.0834 107.672 66.2163 107.588 66.1742 107.484L51.9793 72.7003C51.9525 72.6345 52.0008 72.5625 52.0719 72.5625H69.8346C69.9098 72.5625 69.9581 72.4826 69.9232 72.416L55.5666 45.0535C55.5493 45.0206 55.5152 45 55.478 45Z" stroke="black"/>
</g>
<defs>
<filter id="filter0_d_51_40" x="6" y="45" width="116" height="81" filterUnits="userSpaceOnUse" color-interpolation-filters="sRGB">
<feFlood flood-opacity="0" result="BackgroundImageFix"/>
<feColorMatrix in="SourceAlpha" type="matrix" values="0 0 0 0 0 0 0 0 0 0 0 0 0 0 0 0 0 0 127 0" result="hardAlpha"/>
<feOffset dy="4"/>
<feGaussianBlur stdDeviation="2"/>
<feComposite in2="hardAlpha" operator="out"/>
<feColorMatrix type="matrix" values="0 0 0 0 0 0 0 0 0 0 0 0 0 0 0 0 0 0 0.25 0"/>
<feBlend mode="normal" in2="BackgroundImageFix" result="effect1_dropShadow_51_40"/>
<feBlend mode="normal" in="SourceGraphic" in2="effect1_dropShadow_51_40" result="shape"/>
</filter>
<filter id="filter1_d_51_40" x="10" y="10" width="112" height="78" filterUnits="userSpaceOnUse" color-interpolation-filters="sRGB">
<feFlood flood-opacity="0" result="BackgroundImageFix"/>
<feColorMatrix in="SourceAlpha" type="matrix" values="0 0 0 0 0 0 0 0 0 0 0 0 0 0 0 0 0 0 127 0" result="hardAlpha"/>
<feOffset dy="4"/>
<feGaussianBlur stdDeviation="2"/>
<feComposite in2="hardAlpha" operator="out"/>
<feColorMatrix type="matrix" values="0 0 0 0 0 0 0 0 0 0 0 0 0 0 0 0 0 0 0.25 0"/>
<feBlend mode="normal" in2="BackgroundImageFix" result="effect1_dropShadow_51_40"/>
<feBlend mode="normal" in="SourceGraphic" in2="effect1_dropShadow_51_40" result="shape"/>
</filter>
<filter id="filter2_d_51_40" x="38.2081" y="77.2082" width="85.0833" height="48.0833" filterUnits="userSpaceOnUse" color-interpolation-filters="sRGB">
<feFlood flood-opacity="0" result="BackgroundImageFix"/>
<feColorMatrix in="SourceAlpha" type="matrix" values="0 0 0 0 0 0 0 0 0 0 0 0 0 0 0 0 0 0 127 0" result="hardAlpha"/>
<feOffset dy="4"/>
<feGaussianBlur stdDeviation="2"/>
<feComposite in2="hardAlpha" operator="out"/>
<feColorMatrix type="matrix" values="0 0 0 0 0 0 0 0 0 0 0 0 0 0 0 0 0 0 0.25 0"/>
<feBlend mode="normal" in2="BackgroundImageFix" result="effect1_dropShadow_51_40"/>
<feBlend mode="normal" in="SourceGraphic" in2="effect1_dropShadow_51_40" result="shape"/>
</filter>
<filter id="filter3_d_51_40" x="19.1274" y="45" width="54.8074" height="70.6229" filterUnits="userSpaceOnUse" color-interpolation-filters="sRGB">
<feFlood flood-opacity="0" result="BackgroundImageFix"/>
<feColorMatrix in="SourceAlpha" type="matrix" values="0 0 0 0 0 0 0 0 0 0 0 0 0 0 0 0 0 0 127 0" result="hardAlpha"/>
<feOffset dy="4"/>
<feGaussianBlur stdDeviation="2"/>
<feComposite in2="hardAlpha" operator="out"/>
<feColorMatrix type="matrix" values="0 0 0 0 0 0 0 0 0 0 0 0 0 0 0 0 0 0 0.25 0"/>
<feBlend mode="normal" in2="BackgroundImageFix" result="effect1_dropShadow_51_40"/>
<feBlend mode="normal" in="SourceGraphic" in2="effect1_dropShadow_51_40" result="shape"/>
</filter>
<radialGradient id="paint0_radial_51_40" cx="0" cy="0" r="1" gradientUnits="userSpaceOnUse" gradientTransform="translate(101.5 101) rotate(-121.298) scale(102.987)">
<stop stop-color="#FFFFF7"/>
<stop offset="1" stop-color="#EDEDED"/>
</radialGradient>
<radialGradient id="paint1_radial_51_40" cx="0" cy="0" r="1" gradientUnits="userSpaceOnUse" gradientTransform="translate(64 64) rotate(90) scale(54)">
<stop stop-color="#FFFCAC"/>
<stop offset="1" stop-color="#FFE8DB" stop-opacity="0.69"/>
</radialGradient>
<linearGradient id="paint2_linear_51_40" x1="64" y1="45" x2="64" y2="118" gradientUnits="userSpaceOnUse">
<stop stop-color="#AEAEAE"/>
<stop offset="1" stop-color="#B0B0B0" stop-opacity="0.72"/>
</linearGradient>
<linearGradient id="paint3_linear_51_40" x1="66" y1="10" x2="66" y2="80" gradientUnits="userSpaceOnUse">
<stop stop-color="#AEAEAE"/>
<stop offset="1" stop-color="#B0B0B0" stop-opacity="0.72"/>
</linearGradient>
</defs>
</svg>
