<svg width="24" height="24" viewBox="0 0 24 24" fill="none" xmlns="http://www.w3.org/2000/svg">
<rect width="24" height="24" fill="white"/>
<rect x="7" y="16.7071" width="1" height="3" rx="0.5" transform="rotate(-45 7 16.7071)" fill="#7A7A7A"/>
<rect x="11" y="16.7071" width="1" height="3" rx="0.5" transform="rotate(-45 11 16.7071)" fill="#7A7A7A"/>
<rect x="11" y="19.7071" width="1" height="3" rx="0.5" transform="rotate(-45 11 19.7071)" fill="#7A7A7A"/>
<rect x="15" y="19.7071" width="1" height="3" rx="0.5" transform="rotate(-45 15 19.7071)" fill="#7A7A7A"/>
<rect x="15" y="16.7071" width="1" height="3" rx="0.5" transform="rotate(-45 15 16.7071)" fill="#7A7A7A"/>
<path d="M14.4623 7.43463C14.1729 7.33294 13.9462 7.10405 13.8473 6.8137C13.0671 4.52386 10.9462 3 8.57703 3C5.51049 3 3 5.52502 3 8.66931C3 11.8127 5.50898 14.3371 8.57426 14.3386C13.7468 14.3079 14.1345 14.3091 15.2796 14.3125C15.7254 14.3138 16.2861 14.3155 17.2885 14.3158L14.4623 7.43463ZM14.4623 7.43463C14.7517 7.53633 15.0718 7.49958 15.3306 7.33494M14.4623 7.43463L15.3306 7.33494M15.3306 7.33494C15.9183 6.9611 16.5978 6.76271 17.2892 6.76184C19.3252 6.76221 20.999 8.43947 21 10.5378L15.3306 7.33494ZM21 10.5382C20.9998 12.6376 19.3258 14.3156 17.2888 14.3158L21 10.5382Z" stroke="black" stroke-opacity="0.25" stroke-width="2" stroke-linejoin="round"/>
</svg>
