<svg width="24" height="24" viewBox="0 0 24 24" fill="none" xmlns="http://www.w3.org/2000/svg">
<g id="Frame 1">
<rect width="24" height="24" fill="white"/>
<path id="Subtract" fill-rule="evenodd" clip-rule="evenodd" d="M9.49361 21.6945C8.47227 22.1151 7.30331 21.6282 6.88266 20.6068L5.85753 18.1179L3.37274 17.0828C2.3531 16.658 1.87084 15.4871 2.29558 14.4675L3.33066 11.9827L2.3055 9.49365C1.88484 8.47232 2.37179 7.30336 3.39312 6.8827L5.88217 5.85754L6.91724 3.37276C7.34199 2.35312 8.51289 1.87086 9.53253 2.29561L12.0173 3.33067L14.5063 2.30554C15.5276 1.88489 16.6966 2.37183 17.1172 3.39317L18.1424 5.88215L20.6273 6.91727C21.6469 7.34201 22.1292 8.51291 21.7044 9.53255L20.6693 12.0174L21.6944 14.5063C22.1151 15.5277 21.6281 16.6966 20.6068 17.1173L18.1179 18.1424L17.0828 20.6273C16.658 21.6469 15.4871 22.1292 14.4675 21.7044L11.9826 20.6693L9.49361 21.6945ZM14.0604 17.0026C16.8233 15.8647 18.1405 12.7025 17.0026 9.93958C15.8647 7.1767 12.7024 5.85943 9.93955 6.99737C7.17668 8.13531 5.85941 11.2975 6.99735 14.0604C8.13529 16.8233 11.2975 18.1406 14.0604 17.0026Z" fill="black"/>
</g>
</svg>
