<svg width="24" height="24" viewBox="0 0 24 24" fill="none" xmlns="http://www.w3.org/2000/svg">
<rect width="24" height="24" fill="white"/>
<mask id="path-2-inside-1_33_169" fill="white">
<path fill-rule="evenodd" clip-rule="evenodd" d="M12.5164 1C10.8595 1 9.51636 2.34315 9.51636 4V5V9V13V13.9996C8.30191 14.9118 7.51636 16.3642 7.51636 18C7.51636 20.7614 9.75493 23 12.5164 23C15.2778 23 17.5164 20.7614 17.5164 18C17.5164 16.3642 16.7308 14.9118 15.5164 13.9996V4C15.5164 2.34315 14.1732 1 12.5164 1Z"/>
</mask>
<path d="M9.51636 13.9996L10.7175 15.5988L11.5164 14.9987V13.9996H9.51636ZM15.5164 13.9996H13.5164V14.9987L14.3152 15.5988L15.5164 13.9996ZM11.5164 4C11.5164 3.44772 11.9641 3 12.5164 3V-1C9.75493 -1 7.51636 1.23858 7.51636 4H11.5164ZM11.5164 5V4H7.51636V5H11.5164ZM11.5164 9V5H7.51636V9H11.5164ZM11.5164 13V9H7.51636V13H11.5164ZM11.5164 13.9996V13H7.51636V13.9996H11.5164ZM9.51636 18C9.51636 17.0198 9.98433 16.1495 10.7175 15.5988L8.3152 12.4005C6.61949 13.6742 5.51636 15.7086 5.51636 18H9.51636ZM12.5164 21C10.8595 21 9.51636 19.6569 9.51636 18H5.51636C5.51636 21.866 8.65036 25 12.5164 25V21ZM15.5164 18C15.5164 19.6569 14.1732 21 12.5164 21V25C16.3824 25 19.5164 21.866 19.5164 18H15.5164ZM14.3152 15.5988C15.0484 16.1495 15.5164 17.0198 15.5164 18H19.5164C19.5164 15.7086 18.4132 13.6742 16.7175 12.4005L14.3152 15.5988ZM13.5164 4V13.9996H17.5164V4H13.5164ZM12.5164 3C13.0686 3 13.5164 3.44772 13.5164 4H17.5164C17.5164 1.23858 15.2778 -1 12.5164 -1V3Z" fill="black" mask="url(#path-2-inside-1_33_169)"/>
<line x1="6.51624" y1="8.02396" x2="10.0995" y2="8.02396" stroke="black" stroke-width="2" stroke-linecap="round"/>
<line x1="7.51636" y1="11.9949" x2="10.343" y2="11.9949" stroke="black" stroke-width="2" stroke-linecap="round"/>
<line x1="4.51636" y1="4.0043" x2="10.0996" y2="4.0043" stroke="black" stroke-width="2" stroke-linecap="round"/>
<circle cx="12.5164" cy="18" r="2" fill="black"/>
</svg>
