<svg width="24" height="24" viewBox="0 0 24 24" fill="none" xmlns="http://www.w3.org/2000/svg">
<g id="Frame 1">
<rect width="24" height="24" fill="white"/>
<g id="temp3">
<path id="Union" d="M4.35201 10.7258L4.99525 11.4915L5.35201 11.1917V10.7258H4.35201ZM12.56 10.7258H11.56V11.1917L11.9167 11.4915L12.56 10.7258ZM5.35201 6.10398C5.35201 4.3897 6.74171 3 8.456 3V1C5.63715 1 3.35201 3.28513 3.35201 6.10398H5.35201ZM5.35201 10.7258V6.10398H3.35201V10.7258H5.35201ZM3.07202 15.616C3.07202 13.9608 3.81778 12.4807 4.99525 11.4915L3.70878 9.96013C2.09832 11.3131 1.07202 13.3452 1.07202 15.616H3.07202ZM8.456 21C5.48251 21 3.07202 18.5895 3.07202 15.616H1.07202C1.07202 19.6941 4.37794 23 8.456 23V21ZM13.84 15.616C13.84 18.5895 11.4295 21 8.456 21V23C12.5341 23 15.84 19.6941 15.84 15.616H13.84ZM11.9167 11.4915C13.0942 12.4807 13.84 13.9608 13.84 15.616H15.84C15.84 13.3452 14.8137 11.3131 13.2032 9.96013L11.9167 11.4915ZM11.56 6.10399V10.7258H13.56V6.10399H11.56ZM8.456 3C10.1703 3 11.56 4.3897 11.56 6.10399H13.56C13.56 3.28513 11.2749 1 8.456 1V3Z" fill="black"/>
<circle id="Ellipse 43" cx="18.7304" cy="6.218" r="3.718" stroke="black"/>
<path id="Union_2" d="M8.45601 5.64554C7.95233 5.64554 7.54401 6.05385 7.54401 6.55753V13.6569C6.64993 14.018 6.01904 14.8941 6.01904 15.9175C6.01904 17.2634 7.11011 18.3545 8.45602 18.3545C9.80192 18.3545 10.893 17.2634 10.893 15.9175C10.893 14.8941 10.2621 14.018 9.368 13.6569V6.55754C9.368 6.05385 8.95969 5.64554 8.45601 5.64554Z" fill="black"/>
</g>
</g>
</svg>
