<svg width="24" height="24" viewBox="0 0 24 24" fill="none" xmlns="http://www.w3.org/2000/svg">
<rect width="24" height="24" fill="white"/>
<path fill-rule="evenodd" clip-rule="evenodd" d="M11 11.1204C11 11.854 10.5983 12.5288 9.95342 12.8785C8.60567 13.6094 7.69775 15.0322 7.69775 16.6642C7.69775 19.0403 9.62395 20.9664 12 20.9664C14.3761 20.9664 16.3023 19.0403 16.3023 16.6642C16.3023 15.0322 15.3944 13.6094 14.0466 12.8785C13.4017 12.5288 13 11.854 13 11.1204V4.01804C13 3.46575 12.5523 3.01804 12 3.01804C11.4477 3.01804 11 3.46575 11 4.01804V11.1204ZM8.97241 4.96469C8.98164 4.96469 8.99083 4.96457 9 4.96432V8.02851C8.97613 8.02681 8.95203 8.02594 8.92773 8.02594H7.42773C6.87545 8.02594 6.42773 8.47365 6.42773 9.02594C6.42773 9.57823 6.87545 10.0259 7.42773 10.0259H8.92773C8.95203 10.0259 8.97613 10.0251 9 10.0234V11.1204C7.03323 12.1869 5.69775 14.2696 5.69775 16.6642C5.69775 20.1448 8.51937 22.9664 12 22.9664C15.4807 22.9664 18.3023 20.1448 18.3023 16.6642C18.3023 14.2696 16.9668 12.1869 15 11.1204V4.01804C15 2.36118 13.6569 1.01804 12 1.01804C10.7055 1.01804 9.60254 1.8379 9.18198 2.98669C9.1144 2.97228 9.04429 2.96469 8.97241 2.96469H3.97241C3.42013 2.96469 2.97241 3.41241 2.97241 3.96469C2.97241 4.51698 3.42013 4.96469 3.97241 4.96469H8.97241Z" fill="black"/>
<circle cx="12" cy="16.7966" r="1.68027" fill="black"/>
</svg>
