<svg width="24" height="24" viewBox="0 0 24 24" fill="none" xmlns="http://www.w3.org/2000/svg">
<g id="Frame 1">
<rect width="24" height="24" fill="white"/>
<path id="sun" fill-rule="evenodd" clip-rule="evenodd" d="M10.9009 2.09915C10.9009 1.4921 11.393 1 12 1C12.6071 1 13.0992 1.4921 13.0992 2.09915V3.19829C13.0992 3.80533 12.6071 4.29744 12 4.29744C11.393 4.29744 10.9009 3.80533 10.9009 3.19829V2.09915ZM10.9009 20.8017C10.9009 20.1947 11.393 19.7026 12 19.7026C12.6071 19.7026 13.0992 20.1947 13.0992 20.8017V21.9009C13.0992 22.5079 12.6071 23 12 23C11.393 23 10.9009 22.5079 10.9009 21.9009V20.8017ZM1 12C1 12.6071 1.4921 13.0992 2.09915 13.0992H3.19829C3.80533 13.0992 4.29744 12.6071 4.29744 12C4.29744 11.393 3.80533 10.9009 3.19829 10.9009H2.09915C1.4921 10.9009 1 11.393 1 12ZM4.22185 5.77628C3.7926 5.34703 3.7926 4.65109 4.22185 4.22185C4.65109 3.79261 5.34703 3.79261 5.77628 4.22185L6.55349 4.99906C6.98273 5.42831 6.98273 6.12425 6.55349 6.55349C6.12425 6.98273 5.42831 6.98273 4.99906 6.55349L4.22185 5.77628ZM17.4465 17.4466C17.0173 17.8758 17.0173 18.5718 17.4465 19.001L18.2238 19.7782C18.653 20.2075 19.3489 20.2075 19.7782 19.7782C20.2074 19.349 20.2074 18.653 19.7782 18.2238L19.001 17.4466C18.5717 17.0173 17.8758 17.0173 17.4465 17.4466ZM18.2237 4.22185C18.653 3.7926 19.3489 3.7926 19.7782 4.22185C20.2074 4.65109 20.2074 5.34703 19.7782 5.77628L19.0009 6.55349C18.5717 6.98273 17.8758 6.98273 17.4465 6.55349C17.0173 6.12425 17.0173 5.42831 17.4465 4.99906L18.2237 4.22185ZM6.55347 17.4465C6.12423 17.0173 5.42829 17.0173 4.99904 17.4465L4.22183 18.2238C3.79258 18.653 3.79258 19.3489 4.22183 19.7782C4.65107 20.2074 5.34701 20.2074 5.77626 19.7782L6.55347 19.001C6.98271 18.5717 6.98271 17.8758 6.55347 17.4465Z" fill="black"/>
<path id="Union" fill-rule="evenodd" clip-rule="evenodd" d="M12.0831 12.2318C12.0831 12.2318 12.0831 12.2318 12.0831 12.2318V9.95471C12.0831 9.40243 12.5308 8.95471 13.0831 8.95471V8.95471C13.6353 8.95471 14.0831 9.40243 14.0831 9.95471V12.2217C14.0831 12.2218 14.0831 12.2218 14.0831 12.2218V12.2218C14.0831 12.2218 14.0831 12.2218 14.0831 12.2218C14.0831 14.1932 12.7564 16.17 10.6996 16.17C8.6464 16.17 7.32072 14.2 7.31617 12.2319C7.31617 12.2319 7.31617 12.2319 7.31617 12.2319V12.2319C7.31616 12.2319 7.31616 12.2319 7.31616 12.2319V12.2218V10.0301C7.31616 9.47783 7.76388 9.03012 8.31616 9.03012V9.03012C8.86845 9.03012 9.31616 9.47783 9.31616 10.0301V12.2218C9.31616 13.5068 10.1237 14.17 10.6996 14.17C11.2741 14.17 12.0789 13.5103 12.0831 12.2319C12.0831 12.2318 12.0831 12.2318 12.0831 12.2318V12.2318Z" fill="black"/>
<path id="Union_2" fill-rule="evenodd" clip-rule="evenodd" d="M18.2805 9.50939C18.0568 9.00445 17.4661 8.77647 16.9611 9.00018C16.4562 9.22389 16.2282 9.81459 16.4519 10.3195L18.8418 15.7137C19.0655 16.2187 19.6562 16.4466 20.1612 16.2229C20.4572 16.0918 20.658 15.8345 20.7284 15.5424L22.8855 10.3365C23.0969 9.82628 22.8546 9.24128 22.3444 9.02987C21.8342 8.81846 21.2492 9.0607 21.0378 9.57092L19.7185 12.755L18.2805 9.50939Z" fill="black"/>
</g>
</svg>
